<svg width="30" height="18" viewBox="0 0 30 18" fill="none" xmlns="http://www.w3.org/2000/svg">
<path d="M24.9533 8.96518V9.05308C24.9405 11.0068 24.5043 12.7137 23.8652 13.894C23.1899 15.1414 22.4646 15.5277 21.973 15.5277C21.4814 15.5277 20.7562 15.1414 20.0808 13.894C19.4321 12.6961 18.9925 10.9556 18.9925 8.96518C18.9925 6.97472 19.4321 5.23426 20.0807 4.03629C20.756 2.78896 21.4812 2.40262 21.9727 2.40262C22.4645 2.40262 23.1897 2.78892 23.865 4.03596C24.5136 5.23373 24.9533 6.97414 24.9533 8.96518ZM8.46104 1.9165C12.4665 1.9165 15.6718 5.0951 15.6718 8.96518C15.6718 12.8352 12.4663 16.0136 8.46104 16.0136C4.45576 16.0136 1.25 12.8351 1.25 8.96518C1.25 5.09516 4.45555 1.9165 8.46104 1.9165ZM28.2745 8.96518C28.2745 7.57051 28.3645 6.29446 28.5122 5.25545C28.6599 6.29442 28.75 7.57045 28.75 8.96518C28.75 10.3598 28.6599 11.636 28.5122 12.6752C28.3645 11.6361 28.2745 10.36 28.2745 8.96518Z" fill="#1F1F1F" stroke="#1F1F1F" stroke-width="2.5"/>
</svg>
